<?xml version="1.0" encoding="utf-8"?>
<!-- Generator: Adobe Illustrator 16.0.0, SVG Export Plug-In . SVG Version: 6.00 Build 0)  -->
<!DOCTYPE svg PUBLIC "-//W3C//DTD SVG 1.1//EN" "http://www.w3.org/Graphics/SVG/1.1/DTD/svg11.dtd">
<svg version="1.1" id="Layer_1" xmlns="http://www.w3.org/2000/svg" xmlns:xlink="http://www.w3.org/1999/xlink" x="0px" y="0px"
	 width="264px" height="88px" viewBox="0 0 264 88" enable-background="new 0 0 264 88" xml:space="preserve">
<title>default-skin 2</title>
<g>
	<g>
		<g>
			<g>
				<path id="Shape_1_" fill="#FFFFFF" d="M13,29v-5h2v3h3v2H13z M13,15h5v2h-3v3h-2V15z M31,15v5h-2v-3h-3v-2H31z M31,29h-5v-2h3
					v-3h2V29z"/>
			</g>
			<g>
				<path fill="#FFFFFF" d="M62,24v5h-2v-3h-3v-2H62z M62,20h-5v-2h3v-3h2V20z M70,20v-5h2v3h3v2H70z M70,24h5v2h-3v3h-2V24z"/>
			</g>
			<path fill="#FFFFFF" d="M20.586,66l-5.656-5.656l1.414-1.414L22,64.586l5.656-5.656l1.414,1.414L23.414,66l5.656,5.656
				l-1.414,1.414L22,67.414l-5.656,5.656l-1.414-1.414L20.586,66z"/>
			<path fill="#FFFFFF" d="M111.785,65.03L110,63.5l3-3.5h-10v-2h10l-3-3.5l1.785-1.468L117,59L111.785,65.03z"/>
			<path fill="#FFFFFF" d="M152.215,65.03L154,63.5l-3-3.5h10v-2h-10l3-3.5l-1.785-1.468L147,59L152.215,65.03z"/>
			<g>
				<path id="Rectangle-11" fill="#FFFFFF" d="M160.957,28.543l-3.25-3.25l-1.413,1.414l3.25,3.25L160.957,28.543z"/>
				<path id="Oval-1" fill="none" stroke="#FFFFFF" stroke-width="1.5" d="M152.5,27c3.038,0,5.5-2.462,5.5-5.5s-2.462-5.5-5.5-5.5
					s-5.5,2.462-5.5,5.5S149.462,27,152.5,27z"/>
				<path fill="#FFFFFF" d="M150,21h5v1h-5V21z"/>
			</g>
			<g>
				<path fill="#FFFFFF" d="M116.957,28.543l-1.414,1.414l-3.25-3.25l1.414-1.414L116.957,28.543z"/>
				<path fill="none" stroke="#FFFFFF" stroke-width="1.5" d="M108.5,27c3.038,0,5.5-2.462,5.5-5.5s-2.462-5.5-5.5-5.5
					s-5.5,2.462-5.5,5.5S105.462,27,108.5,27z"/>
				<path fill="#FFFFFF" d="M106,21h5v1h-5V21z"/>
				<path fill="#FFFFFF" d="M109.043,19.008l-0.085,5l-1-0.017l0.085-5L109.043,19.008z"/>
			</g>
		</g>
	</g>
	<path id="menu-10-icon" fill="#FFFFFF" d="M198.016,59.736c1.74,0,3.375,0.678,4.605,1.908c1.229,1.23,1.908,2.866,1.908,4.606
		c0,1.739-0.679,3.375-1.908,4.605c-1.23,1.229-2.865,1.909-4.605,1.909s-3.375-0.68-4.606-1.909
		c-1.23-1.23-1.907-2.866-1.907-4.605c0-1.74,0.677-3.376,1.907-4.606C194.641,60.414,196.275,59.736,198.016,59.736z
		 M198.016,58.166c-4.465,0-8.083,3.619-8.083,8.084s3.619,8.083,8.083,8.083s8.083-3.618,8.083-8.083
		S202.479,58.166,198.016,58.166z M195.588,66.25c0,0.676-0.547,1.224-1.224,1.224c-0.676,0-1.224-0.548-1.224-1.224
		s0.548-1.224,1.224-1.224C195.041,65.026,195.588,65.574,195.588,66.25z M198.016,65.026c-0.677,0-1.224,0.548-1.224,1.224
		s0.547,1.224,1.224,1.224c0.676,0,1.224-0.548,1.224-1.224S198.691,65.026,198.016,65.026z M201.666,65.026
		c-0.675,0-1.224,0.548-1.224,1.224s0.549,1.224,1.224,1.224c0.676,0,1.224-0.548,1.224-1.224S202.342,65.026,201.666,65.026z"/>
	<path id="Shape" fill="#FFFFFF" d="M68.002,59.5v3.768C61.695,64.107,58.818,69.018,58,73c2.22-2.83,5.564-5.098,10.002-5.098V71.5
		L74,65.585L68.002,59.5z"/>
</g>
</svg>
